<svg xmlns="http://www.w3.org/2000/svg" version="1.1" xmlns:xlink="http://www.w3.org/1999/xlink" xmlns:svgjs="http://svgjs.com/svgjs" width="1440" height="760" preserveAspectRatio="none" viewBox="0 0 1440 760"><g mask="url(&quot;#SvgjsMask1035&quot;)" fill="none"><rect width="1440" height="760" x="0" y="0" fill="url(#SvgjsLinearGradient1036)"></rect><path d="M-97.73 545.98L-97.73 545.98" stroke="rgba(177, 63, 144, 1)" stroke-width="1.5"></path><path d="M-97.73 545.98L-72.07 681.92" stroke="rgba(177, 63, 144, 1)" stroke-width="1.5"></path><path d="M-97.73 545.98L46.11 552.46" stroke="rgba(177, 63, 144, 1)" stroke-width="1.5"></path><path d="M-97.73 545.98L106.49 637.98" stroke="rgba(177, 63, 144, 1)" stroke-width="1.5"></path><path d="M-72.07 681.92L-72.07 681.92" stroke="rgba(177, 63, 144, 1)" stroke-width="1.5"></path><path d="M-72.07 681.92L-84.4 853.11" stroke="rgba(177, 63, 144, 1)" stroke-width="1.5"></path><path d="M-72.07 681.92L46.11 552.46" stroke="rgba(177, 63, 144, 1)" stroke-width="1.5"></path><path d="M-72.07 681.92L106.49 637.98" stroke="rgba(177, 63, 144, 1)" stroke-width="1.5"></path><path d="M-72.07 681.92L80.89 798.36" stroke="rgba(177, 63, 144, 1)" stroke-width="1.5"></path><path d="M-84.4 853.11L-84.4 853.11" stroke="rgba(177, 63, 144, 1)" stroke-width="1.5"></path><path d="M-84.4 853.11L80.89 798.36" stroke="rgba(177, 63, 144, 1)" stroke-width="1.5"></path><path d="M-84.4 853.11L57.43 959.49" stroke="rgba(177, 63, 144, 1)" stroke-width="1.5"></path><path d="M-84.4 853.11L106.49 637.98" stroke="rgba(177, 63, 144, 1)" stroke-width="1.5"></path><path d="M-84.4 853.11L204.37 815.84" stroke="rgba(177, 63, 144, 1)" stroke-width="1.5"></path><path d="M-84.4 853.11L-97.73 545.98" stroke="rgba(177, 63, 144, 1)" stroke-width="1.5"></path><path d="M46.11 552.46L46.11 552.46" stroke="rgba(177, 63, 144, 1)" stroke-width="1.5"></path><path d="M46.11 552.46L106.49 637.98" stroke="rgba(177, 63, 144, 1)" stroke-width="1.5"></path><path d="M106.49 637.98L106.49 637.98" stroke="rgba(177, 63, 144, 1)" stroke-width="1.5"></path><path d="M106.49 637.98L205.51 667.91" stroke="rgba(177, 63, 144, 1)" stroke-width="1.5"></path><path d="M106.49 637.98L80.89 798.36" stroke="rgba(177, 63, 144, 1)" stroke-width="1.5"></path><path d="M106.49 637.98L204.37 815.84" stroke="rgba(177, 63, 144, 1)" stroke-width="1.5"></path><path d="M80.89 798.36L80.89 798.36" stroke="rgba(177, 63, 144, 1)" stroke-width="1.5"></path><path d="M80.89 798.36L204.37 815.84" stroke="rgba(177, 63, 144, 1)" stroke-width="1.5"></path><path d="M57.43 959.49L57.43 959.49" stroke="rgba(177, 63, 144, 1)" stroke-width="1.5"></path><path d="M57.43 959.49L209.07 1001.84" stroke="rgba(177, 63, 144, 1)" stroke-width="1.5"></path><path d="M57.43 959.49L80.89 798.36" stroke="rgba(177, 63, 144, 1)" stroke-width="1.5"></path><path d="M205.51 667.91L205.51 667.91" stroke="rgba(177, 63, 144, 1)" stroke-width="1.5"></path><path d="M205.51 667.91L349.29 699.94" stroke="rgba(177, 63, 144, 1)" stroke-width="1.5"></path><path d="M205.51 667.91L204.37 815.84" stroke="rgba(177, 63, 144, 1)" stroke-width="1.5"></path><path d="M205.51 667.91L80.89 798.36" stroke="rgba(177, 63, 144, 1)" stroke-width="1.5"></path><path d="M205.51 667.91L46.11 552.46" stroke="rgba(177, 63, 144, 1)" stroke-width="1.5"></path><path d="M205.51 667.91L363.56 492.48" stroke="rgba(177, 63, 144, 1)" stroke-width="1.5"></path><path d="M204.37 815.84L204.37 815.84" stroke="rgba(177, 63, 144, 1)" stroke-width="1.5"></path><path d="M204.37 815.84L349.29 699.94" stroke="rgba(177, 63, 144, 1)" stroke-width="1.5"></path><path d="M204.37 815.84L209.07 1001.84" stroke="rgba(177, 63, 144, 1)" stroke-width="1.5"></path><path d="M209.07 1001.84L209.07 1001.84" stroke="rgba(177, 63, 144, 1)" stroke-width="1.5"></path><path d="M209.07 1001.84L406.05 960.36" stroke="rgba(177, 63, 144, 1)" stroke-width="1.5"></path><path d="M209.07 1001.84L80.89 798.36" stroke="rgba(177, 63, 144, 1)" stroke-width="1.5"></path><path d="M363.56 492.48L363.56 492.48" stroke="rgba(177, 63, 144, 1)" stroke-width="1.5"></path><path d="M363.56 492.48L525.96 541.16" stroke="rgba(177, 63, 144, 1)" stroke-width="1.5"></path><path d="M363.56 492.48L349.29 699.94" stroke="rgba(177, 63, 144, 1)" stroke-width="1.5"></path><path d="M363.56 492.48L508.63 692.71" stroke="rgba(177, 63, 144, 1)" stroke-width="1.5"></path><path d="M363.56 492.48L652.52 547.51" stroke="rgba(177, 63, 144, 1)" stroke-width="1.5"></path><path d="M349.29 699.94L349.29 699.94" stroke="rgba(177, 63, 144, 1)" stroke-width="1.5"></path><path d="M349.29 699.94L508.63 692.71" stroke="rgba(177, 63, 144, 1)" stroke-width="1.5"></path><path d="M349.29 699.94L500.6 856.43" stroke="rgba(177, 63, 144, 1)" stroke-width="1.5"></path><path d="M406.05 960.36L406.05 960.36" stroke="rgba(177, 63, 144, 1)" stroke-width="1.5"></path><path d="M406.05 960.36L491.44 953.13" stroke="rgba(177, 63, 144, 1)" stroke-width="1.5"></path><path d="M406.05 960.36L500.6 856.43" stroke="rgba(177, 63, 144, 1)" stroke-width="1.5"></path><path d="M525.96 541.16L525.96 541.16" stroke="rgba(177, 63, 144, 1)" stroke-width="1.5"></path><path d="M525.96 541.16L652.52 547.51" stroke="rgba(177, 63, 144, 1)" stroke-width="1.5"></path><path d="M525.96 541.16L508.63 692.71" stroke="rgba(177, 63, 144, 1)" stroke-width="1.5"></path><path d="M525.96 541.16L660.74 646.96" stroke="rgba(177, 63, 144, 1)" stroke-width="1.5"></path><path d="M508.63 692.71L508.63 692.71" stroke="rgba(177, 63, 144, 1)" stroke-width="1.5"></path><path d="M508.63 692.71L660.74 646.96" stroke="rgba(177, 63, 144, 1)" stroke-width="1.5"></path><path d="M508.63 692.71L500.6 856.43" stroke="rgba(177, 63, 144, 1)" stroke-width="1.5"></path><path d="M500.6 856.43L500.6 856.43" stroke="rgba(177, 63, 144, 1)" stroke-width="1.5"></path><path d="M500.6 856.43L491.44 953.13" stroke="rgba(177, 63, 144, 1)" stroke-width="1.5"></path><path d="M500.6 856.43L670.08 861.34" stroke="rgba(177, 63, 144, 1)" stroke-width="1.5"></path><path d="M500.6 856.43L640.98 1005.09" stroke="rgba(177, 63, 144, 1)" stroke-width="1.5"></path><path d="M491.44 953.13L491.44 953.13" stroke="rgba(177, 63, 144, 1)" stroke-width="1.5"></path><path d="M491.44 953.13L640.98 1005.09" stroke="rgba(177, 63, 144, 1)" stroke-width="1.5"></path><path d="M491.44 953.13L670.08 861.34" stroke="rgba(177, 63, 144, 1)" stroke-width="1.5"></path><path d="M491.44 953.13L508.63 692.71" stroke="rgba(177, 63, 144, 1)" stroke-width="1.5"></path><path d="M491.44 953.13L209.07 1001.84" stroke="rgba(177, 63, 144, 1)" stroke-width="1.5"></path><path d="M685.17 391.95L685.17 391.95" stroke="rgba(177, 63, 144, 1)" stroke-width="1.5"></path><path d="M685.17 391.95L804.15 371.01" stroke="rgba(177, 63, 144, 1)" stroke-width="1.5"></path><path d="M685.17 391.95L652.52 547.51" stroke="rgba(177, 63, 144, 1)" stroke-width="1.5"></path><path d="M685.17 391.95L805.39 511.76" stroke="rgba(177, 63, 144, 1)" stroke-width="1.5"></path><path d="M685.17 391.95L525.96 541.16" stroke="rgba(177, 63, 144, 1)" stroke-width="1.5"></path><path d="M685.17 391.95L660.74 646.96" stroke="rgba(177, 63, 144, 1)" stroke-width="1.5"></path><path d="M652.52 547.51L652.52 547.51" stroke="rgba(177, 63, 144, 1)" stroke-width="1.5"></path><path d="M652.52 547.51L660.74 646.96" stroke="rgba(177, 63, 144, 1)" stroke-width="1.5"></path><path d="M652.52 547.51L805.39 511.76" stroke="rgba(177, 63, 144, 1)" stroke-width="1.5"></path><path d="M660.74 646.96L660.74 646.96" stroke="rgba(177, 63, 144, 1)" stroke-width="1.5"></path><path d="M660.74 646.96L797.95 695.51" stroke="rgba(177, 63, 144, 1)" stroke-width="1.5"></path><path d="M660.74 646.96L805.39 511.76" stroke="rgba(177, 63, 144, 1)" stroke-width="1.5"></path><path d="M660.74 646.96L670.08 861.34" stroke="rgba(177, 63, 144, 1)" stroke-width="1.5"></path><path d="M670.08 861.34L670.08 861.34" stroke="rgba(177, 63, 144, 1)" stroke-width="1.5"></path><path d="M670.08 861.34L812.86 858.11" stroke="rgba(177, 63, 144, 1)" stroke-width="1.5"></path><path d="M670.08 861.34L640.98 1005.09" stroke="rgba(177, 63, 144, 1)" stroke-width="1.5"></path><path d="M670.08 861.34L797.95 695.51" stroke="rgba(177, 63, 144, 1)" stroke-width="1.5"></path><path d="M640.98 1005.09L640.98 1005.09" stroke="rgba(177, 63, 144, 1)" stroke-width="1.5"></path><path d="M640.98 1005.09L855.59 978.47" stroke="rgba(177, 63, 144, 1)" stroke-width="1.5"></path><path d="M640.98 1005.09L812.86 858.11" stroke="rgba(177, 63, 144, 1)" stroke-width="1.5"></path><path d="M640.98 1005.09L406.05 960.36" stroke="rgba(177, 63, 144, 1)" stroke-width="1.5"></path><path d="M851.14 194L851.14 194" stroke="rgba(177, 63, 144, 1)" stroke-width="1.5"></path><path d="M851.14 194L946.81 260.42" stroke="rgba(177, 63, 144, 1)" stroke-width="1.5"></path><path d="M851.14 194L804.15 371.01" stroke="rgba(177, 63, 144, 1)" stroke-width="1.5"></path><path d="M851.14 194L957.13 355.27" stroke="rgba(177, 63, 144, 1)" stroke-width="1.5"></path><path d="M851.14 194L985.04 40.41" stroke="rgba(177, 63, 144, 1)" stroke-width="1.5"></path><path d="M851.14 194L685.17 391.95" stroke="rgba(177, 63, 144, 1)" stroke-width="1.5"></path><path d="M851.14 194L1103.43 78.68" stroke="rgba(177, 63, 144, 1)" stroke-width="1.5"></path><path d="M804.15 371.01L804.15 371.01" stroke="rgba(177, 63, 144, 1)" stroke-width="1.5"></path><path d="M804.15 371.01L805.39 511.76" stroke="rgba(177, 63, 144, 1)" stroke-width="1.5"></path><path d="M805.39 511.76L805.39 511.76" stroke="rgba(177, 63, 144, 1)" stroke-width="1.5"></path><path d="M797.95 695.51L797.95 695.51" stroke="rgba(177, 63, 144, 1)" stroke-width="1.5"></path><path d="M797.95 695.51L812.86 858.11" stroke="rgba(177, 63, 144, 1)" stroke-width="1.5"></path><path d="M797.95 695.51L805.39 511.76" stroke="rgba(177, 63, 144, 1)" stroke-width="1.5"></path><path d="M797.95 695.51L652.52 547.51" stroke="rgba(177, 63, 144, 1)" stroke-width="1.5"></path><path d="M797.95 695.51L997.42 807.64" stroke="rgba(177, 63, 144, 1)" stroke-width="1.5"></path><path d="M812.86 858.11L812.86 858.11" stroke="rgba(177, 63, 144, 1)" stroke-width="1.5"></path><path d="M812.86 858.11L855.59 978.47" stroke="rgba(177, 63, 144, 1)" stroke-width="1.5"></path><path d="M812.86 858.11L997.42 807.64" stroke="rgba(177, 63, 144, 1)" stroke-width="1.5"></path><path d="M855.59 978.47L855.59 978.47" stroke="rgba(177, 63, 144, 1)" stroke-width="1.5"></path><path d="M855.59 978.47L670.08 861.34" stroke="rgba(177, 63, 144, 1)" stroke-width="1.5"></path><path d="M1011.7 -98.25L1011.7 -98.25" stroke="rgba(177, 63, 144, 1)" stroke-width="1.5"></path><path d="M1011.7 -98.25L1095.65 -81.22" stroke="rgba(177, 63, 144, 1)" stroke-width="1.5"></path><path d="M1011.7 -98.25L985.04 40.41" stroke="rgba(177, 63, 144, 1)" stroke-width="1.5"></path><path d="M1011.7 -98.25L1103.43 78.68" stroke="rgba(177, 63, 144, 1)" stroke-width="1.5"></path><path d="M1011.7 -98.25L1238.67 -103.74" stroke="rgba(177, 63, 144, 1)" stroke-width="1.5"></path><path d="M1011.7 -98.25L1274.28 101.95" stroke="rgba(177, 63, 144, 1)" stroke-width="1.5"></path><path d="M1011.7 -98.25L851.14 194" stroke="rgba(177, 63, 144, 1)" stroke-width="1.5"></path><path d="M985.04 40.41L985.04 40.41" stroke="rgba(177, 63, 144, 1)" stroke-width="1.5"></path><path d="M985.04 40.41L1103.43 78.68" stroke="rgba(177, 63, 144, 1)" stroke-width="1.5"></path><path d="M985.04 40.41L1095.65 -81.22" stroke="rgba(177, 63, 144, 1)" stroke-width="1.5"></path><path d="M946.81 260.42L946.81 260.42" stroke="rgba(177, 63, 144, 1)" stroke-width="1.5"></path><path d="M946.81 260.42L957.13 355.27" stroke="rgba(177, 63, 144, 1)" stroke-width="1.5"></path><path d="M946.81 260.42L1097.39 350.57" stroke="rgba(177, 63, 144, 1)" stroke-width="1.5"></path><path d="M957.13 355.27L957.13 355.27" stroke="rgba(177, 63, 144, 1)" stroke-width="1.5"></path><path d="M957.13 355.27L1097.39 350.57" stroke="rgba(177, 63, 144, 1)" stroke-width="1.5"></path><path d="M957.13 355.27L992.95 499.8" stroke="rgba(177, 63, 144, 1)" stroke-width="1.5"></path><path d="M957.13 355.27L804.15 371.01" stroke="rgba(177, 63, 144, 1)" stroke-width="1.5"></path><path d="M957.13 355.27L1115.77 496.73" stroke="rgba(177, 63, 144, 1)" stroke-width="1.5"></path><path d="M992.95 499.8L992.95 499.8" stroke="rgba(177, 63, 144, 1)" stroke-width="1.5"></path><path d="M992.95 499.8L1115.77 496.73" stroke="rgba(177, 63, 144, 1)" stroke-width="1.5"></path><path d="M992.95 499.8L1097.39 350.57" stroke="rgba(177, 63, 144, 1)" stroke-width="1.5"></path><path d="M997.42 807.64L997.42 807.64" stroke="rgba(177, 63, 144, 1)" stroke-width="1.5"></path><path d="M997.42 807.64L1105.13 835.5" stroke="rgba(177, 63, 144, 1)" stroke-width="1.5"></path><path d="M997.42 807.64L1104.96 956.24" stroke="rgba(177, 63, 144, 1)" stroke-width="1.5"></path><path d="M997.42 807.64L1114.87 657.61" stroke="rgba(177, 63, 144, 1)" stroke-width="1.5"></path><path d="M997.42 807.64L855.59 978.47" stroke="rgba(177, 63, 144, 1)" stroke-width="1.5"></path><path d="M1095.65 -81.22L1095.65 -81.22" stroke="rgba(177, 63, 144, 1)" stroke-width="1.5"></path><path d="M1095.65 -81.22L1238.67 -103.74" stroke="rgba(177, 63, 144, 1)" stroke-width="1.5"></path><path d="M1095.65 -81.22L1103.43 78.68" stroke="rgba(177, 63, 144, 1)" stroke-width="1.5"></path><path d="M1103.43 78.68L1103.43 78.68" stroke="rgba(177, 63, 144, 1)" stroke-width="1.5"></path><path d="M1103.43 78.68L1274.28 101.95" stroke="rgba(177, 63, 144, 1)" stroke-width="1.5"></path><path d="M1103.43 78.68L1156.67 251.2" stroke="rgba(177, 63, 144, 1)" stroke-width="1.5"></path><path d="M1156.67 251.2L1156.67 251.2" stroke="rgba(177, 63, 144, 1)" stroke-width="1.5"></path><path d="M1156.67 251.2L1250.81 262.18" stroke="rgba(177, 63, 144, 1)" stroke-width="1.5"></path><path d="M1156.67 251.2L1097.39 350.57" stroke="rgba(177, 63, 144, 1)" stroke-width="1.5"></path><path d="M1097.39 350.57L1097.39 350.57" stroke="rgba(177, 63, 144, 1)" stroke-width="1.5"></path><path d="M1097.39 350.57L1115.77 496.73" stroke="rgba(177, 63, 144, 1)" stroke-width="1.5"></path><path d="M1097.39 350.57L1252.63 340.04" stroke="rgba(177, 63, 144, 1)" stroke-width="1.5"></path><path d="M1097.39 350.57L1250.81 262.18" stroke="rgba(177, 63, 144, 1)" stroke-width="1.5"></path><path d="M1115.77 496.73L1115.77 496.73" stroke="rgba(177, 63, 144, 1)" stroke-width="1.5"></path><path d="M1115.77 496.73L1244.15 533.83" stroke="rgba(177, 63, 144, 1)" stroke-width="1.5"></path><path d="M1115.77 496.73L1114.87 657.61" stroke="rgba(177, 63, 144, 1)" stroke-width="1.5"></path><path d="M1114.87 657.61L1114.87 657.61" stroke="rgba(177, 63, 144, 1)" stroke-width="1.5"></path><path d="M1114.87 657.61L1105.13 835.5" stroke="rgba(177, 63, 144, 1)" stroke-width="1.5"></path><path d="M1114.87 657.61L1244.15 533.83" stroke="rgba(177, 63, 144, 1)" stroke-width="1.5"></path><path d="M1114.87 657.61L1303.51 692.85" stroke="rgba(177, 63, 144, 1)" stroke-width="1.5"></path><path d="M1114.87 657.61L992.95 499.8" stroke="rgba(177, 63, 144, 1)" stroke-width="1.5"></path><path d="M1105.13 835.5L1105.13 835.5" stroke="rgba(177, 63, 144, 1)" stroke-width="1.5"></path><path d="M1105.13 835.5L1104.96 956.24" stroke="rgba(177, 63, 144, 1)" stroke-width="1.5"></path><path d="M1105.13 835.5L1303.51 692.85" stroke="rgba(177, 63, 144, 1)" stroke-width="1.5"></path><path d="M1105.13 835.5L1293.82 1004.95" stroke="rgba(177, 63, 144, 1)" stroke-width="1.5"></path><path d="M1104.96 956.24L1104.96 956.24" stroke="rgba(177, 63, 144, 1)" stroke-width="1.5"></path><path d="M1104.96 956.24L1293.82 1004.95" stroke="rgba(177, 63, 144, 1)" stroke-width="1.5"></path><path d="M1104.96 956.24L855.59 978.47" stroke="rgba(177, 63, 144, 1)" stroke-width="1.5"></path><path d="M1104.96 956.24L1398 974.37" stroke="rgba(177, 63, 144, 1)" stroke-width="1.5"></path><path d="M1238.67 -103.74L1238.67 -103.74" stroke="rgba(177, 63, 144, 1)" stroke-width="1.5"></path><path d="M1238.67 -103.74L1410.36 -54.01" stroke="rgba(177, 63, 144, 1)" stroke-width="1.5"></path><path d="M1238.67 -103.74L1274.28 101.95" stroke="rgba(177, 63, 144, 1)" stroke-width="1.5"></path><path d="M1238.67 -103.74L1389.49 63.94" stroke="rgba(177, 63, 144, 1)" stroke-width="1.5"></path><path d="M1274.28 101.95L1274.28 101.95" stroke="rgba(177, 63, 144, 1)" stroke-width="1.5"></path><path d="M1274.28 101.95L1389.49 63.94" stroke="rgba(177, 63, 144, 1)" stroke-width="1.5"></path><path d="M1274.28 101.95L1250.81 262.18" stroke="rgba(177, 63, 144, 1)" stroke-width="1.5"></path><path d="M1250.81 262.18L1250.81 262.18" stroke="rgba(177, 63, 144, 1)" stroke-width="1.5"></path><path d="M1250.81 262.18L1252.63 340.04" stroke="rgba(177, 63, 144, 1)" stroke-width="1.5"></path><path d="M1250.81 262.18L1388.02 252.42" stroke="rgba(177, 63, 144, 1)" stroke-width="1.5"></path><path d="M1252.63 340.04L1252.63 340.04" stroke="rgba(177, 63, 144, 1)" stroke-width="1.5"></path><path d="M1252.63 340.04L1156.67 251.2" stroke="rgba(177, 63, 144, 1)" stroke-width="1.5"></path><path d="M1244.15 533.83L1244.15 533.83" stroke="rgba(177, 63, 144, 1)" stroke-width="1.5"></path><path d="M1244.15 533.83L1303.51 692.85" stroke="rgba(177, 63, 144, 1)" stroke-width="1.5"></path><path d="M1303.51 692.85L1303.51 692.85" stroke="rgba(177, 63, 144, 1)" stroke-width="1.5"></path><path d="M1303.51 692.85L1394.52 646.12" stroke="rgba(177, 63, 144, 1)" stroke-width="1.5"></path><path d="M1303.51 692.85L1413.4 790.39" stroke="rgba(177, 63, 144, 1)" stroke-width="1.5"></path><path d="M1293.82 1004.95L1293.82 1004.95" stroke="rgba(177, 63, 144, 1)" stroke-width="1.5"></path><path d="M1293.82 1004.95L1398 974.37" stroke="rgba(177, 63, 144, 1)" stroke-width="1.5"></path><path d="M1410.36 -54.01L1410.36 -54.01" stroke="rgba(177, 63, 144, 1)" stroke-width="1.5"></path><path d="M1410.36 -54.01L1389.49 63.94" stroke="rgba(177, 63, 144, 1)" stroke-width="1.5"></path><path d="M1410.36 -54.01L1571.79 -86.41" stroke="rgba(177, 63, 144, 1)" stroke-width="1.5"></path><path d="M1389.49 63.94L1389.49 63.94" stroke="rgba(177, 63, 144, 1)" stroke-width="1.5"></path><path d="M1389.49 63.94L1388.02 252.42" stroke="rgba(177, 63, 144, 1)" stroke-width="1.5"></path><path d="M1388.02 252.42L1388.02 252.42" stroke="rgba(177, 63, 144, 1)" stroke-width="1.5"></path><path d="M1388.02 252.42L1252.63 340.04" stroke="rgba(177, 63, 144, 1)" stroke-width="1.5"></path><path d="M1394.52 646.12L1394.52 646.12" stroke="rgba(177, 63, 144, 1)" stroke-width="1.5"></path><path d="M1394.52 646.12L1413.4 790.39" stroke="rgba(177, 63, 144, 1)" stroke-width="1.5"></path><path d="M1394.52 646.12L1573.14 672.44" stroke="rgba(177, 63, 144, 1)" stroke-width="1.5"></path><path d="M1394.52 646.12L1244.15 533.83" stroke="rgba(177, 63, 144, 1)" stroke-width="1.5"></path><path d="M1394.52 646.12L1540.02 817.54" stroke="rgba(177, 63, 144, 1)" stroke-width="1.5"></path><path d="M1394.52 646.12L1583.02 499.86" stroke="rgba(177, 63, 144, 1)" stroke-width="1.5"></path><path d="M1413.4 790.39L1413.4 790.39" stroke="rgba(177, 63, 144, 1)" stroke-width="1.5"></path><path d="M1413.4 790.39L1540.02 817.54" stroke="rgba(177, 63, 144, 1)" stroke-width="1.5"></path><path d="M1398 974.37L1398 974.37" stroke="rgba(177, 63, 144, 1)" stroke-width="1.5"></path><path d="M1398 974.37L1553.76 962.34" stroke="rgba(177, 63, 144, 1)" stroke-width="1.5"></path><path d="M1398 974.37L1413.4 790.39" stroke="rgba(177, 63, 144, 1)" stroke-width="1.5"></path><path d="M1571.79 -86.41L1571.79 -86.41" stroke="rgba(177, 63, 144, 1)" stroke-width="1.5"></path><path d="M1571.79 -86.41L1609.17 93.53" stroke="rgba(177, 63, 144, 1)" stroke-width="1.5"></path><path d="M1609.17 93.53L1609.17 93.53" stroke="rgba(177, 63, 144, 1)" stroke-width="1.5"></path><path d="M1609.17 93.53L1608.41 202.38" stroke="rgba(177, 63, 144, 1)" stroke-width="1.5"></path><path d="M1608.41 202.38L1608.41 202.38" stroke="rgba(177, 63, 144, 1)" stroke-width="1.5"></path><path d="M1608.41 202.38L1549.12 387.42" stroke="rgba(177, 63, 144, 1)" stroke-width="1.5"></path><path d="M1608.41 202.38L1388.02 252.42" stroke="rgba(177, 63, 144, 1)" stroke-width="1.5"></path><path d="M1608.41 202.38L1389.49 63.94" stroke="rgba(177, 63, 144, 1)" stroke-width="1.5"></path><path d="M1549.12 387.42L1549.12 387.42" stroke="rgba(177, 63, 144, 1)" stroke-width="1.5"></path><path d="M1549.12 387.42L1583.02 499.86" stroke="rgba(177, 63, 144, 1)" stroke-width="1.5"></path><path d="M1549.12 387.42L1388.02 252.42" stroke="rgba(177, 63, 144, 1)" stroke-width="1.5"></path><path d="M1549.12 387.42L1573.14 672.44" stroke="rgba(177, 63, 144, 1)" stroke-width="1.5"></path><path d="M1583.02 499.86L1583.02 499.86" stroke="rgba(177, 63, 144, 1)" stroke-width="1.5"></path><path d="M1573.14 672.44L1573.14 672.44" stroke="rgba(177, 63, 144, 1)" stroke-width="1.5"></path><path d="M1573.14 672.44L1540.02 817.54" stroke="rgba(177, 63, 144, 1)" stroke-width="1.5"></path><path d="M1573.14 672.44L1583.02 499.86" stroke="rgba(177, 63, 144, 1)" stroke-width="1.5"></path><path d="M1573.14 672.44L1413.4 790.39" stroke="rgba(177, 63, 144, 1)" stroke-width="1.5"></path><path d="M1573.14 672.44L1303.51 692.85" stroke="rgba(177, 63, 144, 1)" stroke-width="1.5"></path><path d="M1540.02 817.54L1540.02 817.54" stroke="rgba(177, 63, 144, 1)" stroke-width="1.5"></path><path d="M1540.02 817.54L1553.76 962.34" stroke="rgba(177, 63, 144, 1)" stroke-width="1.5"></path><path d="M1540.02 817.54L1398 974.37" stroke="rgba(177, 63, 144, 1)" stroke-width="1.5"></path><path d="M1553.76 962.34L1553.76 962.34" stroke="rgba(177, 63, 144, 1)" stroke-width="1.5"></path><path d="M1553.76 962.34L1413.4 790.39" stroke="rgba(177, 63, 144, 1)" stroke-width="1.5"></path><path d="M1553.76 962.34L1293.82 1004.95" stroke="rgba(177, 63, 144, 1)" stroke-width="1.5"></path><path d="M1553.76 962.34L1573.14 672.44" stroke="rgba(177, 63, 144, 1)" stroke-width="1.5"></path><circle r="5" cx="-97.73" cy="545.98" fill="rgba(177, 63, 144, 1)"></circle><circle r="5" cx="-72.07" cy="681.92" fill="rgba(177, 63, 144, 1)"></circle><circle r="5" cx="-84.4" cy="853.11" fill="rgba(177, 63, 144, 1)"></circle><circle r="5" cx="46.11" cy="552.46" fill="rgba(177, 63, 144, 1)"></circle><circle r="5" cx="106.49" cy="637.98" fill="rgba(177, 63, 144, 1)"></circle><circle r="5" cx="80.89" cy="798.36" fill="rgba(177, 63, 144, 1)"></circle><circle r="5" cx="57.43" cy="959.49" fill="rgba(177, 63, 144, 1)"></circle><circle r="5" cx="205.51" cy="667.91" fill="rgba(177, 63, 144, 1)"></circle><circle r="5" cx="204.37" cy="815.84" fill="rgba(177, 63, 144, 1)"></circle><circle r="5" cx="209.07" cy="1001.84" fill="rgba(177, 63, 144, 1)"></circle><circle r="5" cx="363.56" cy="492.48" fill="rgba(177, 63, 144, 1)"></circle><circle r="5" cx="349.29" cy="699.94" fill="rgba(177, 63, 144, 1)"></circle><circle r="5" cx="406.05" cy="960.36" fill="rgba(177, 63, 144, 1)"></circle><circle r="5" cx="525.96" cy="541.16" fill="rgba(177, 63, 144, 1)"></circle><circle r="5" cx="508.63" cy="692.71" fill="rgba(177, 63, 144, 1)"></circle><circle r="5" cx="500.6" cy="856.43" fill="rgba(177, 63, 144, 1)"></circle><circle r="5" cx="491.44" cy="953.13" fill="rgba(177, 63, 144, 1)"></circle><circle r="5" cx="685.17" cy="391.95" fill="rgba(177, 63, 144, 1)"></circle><circle r="5" cx="652.52" cy="547.51" fill="rgba(177, 63, 144, 1)"></circle><circle r="5" cx="660.74" cy="646.96" fill="rgba(177, 63, 144, 1)"></circle><circle r="5" cx="670.08" cy="861.34" fill="rgba(177, 63, 144, 1)"></circle><circle r="5" cx="640.98" cy="1005.09" fill="rgba(177, 63, 144, 1)"></circle><circle r="5" cx="851.14" cy="194" fill="rgba(177, 63, 144, 1)"></circle><circle r="5" cx="804.15" cy="371.01" fill="rgba(177, 63, 144, 1)"></circle><circle r="5" cx="805.39" cy="511.76" fill="rgba(177, 63, 144, 1)"></circle><circle r="5" cx="797.95" cy="695.51" fill="rgba(177, 63, 144, 1)"></circle><circle r="5" cx="812.86" cy="858.11" fill="rgba(177, 63, 144, 1)"></circle><circle r="5" cx="855.59" cy="978.47" fill="rgba(177, 63, 144, 1)"></circle><circle r="5" cx="1011.7" cy="-98.25" fill="rgba(177, 63, 144, 1)"></circle><circle r="5" cx="985.04" cy="40.41" fill="rgba(177, 63, 144, 1)"></circle><circle r="5" cx="946.81" cy="260.42" fill="rgba(177, 63, 144, 1)"></circle><circle r="5" cx="957.13" cy="355.27" fill="rgba(177, 63, 144, 1)"></circle><circle r="5" cx="992.95" cy="499.8" fill="rgba(177, 63, 144, 1)"></circle><circle r="5" cx="997.42" cy="807.64" fill="rgba(177, 63, 144, 1)"></circle><circle r="5" cx="1095.65" cy="-81.22" fill="rgba(177, 63, 144, 1)"></circle><circle r="5" cx="1103.43" cy="78.68" fill="rgba(177, 63, 144, 1)"></circle><circle r="5" cx="1156.67" cy="251.2" fill="rgba(177, 63, 144, 1)"></circle><circle r="5" cx="1097.39" cy="350.57" fill="rgba(177, 63, 144, 1)"></circle><circle r="5" cx="1115.77" cy="496.73" fill="rgba(177, 63, 144, 1)"></circle><circle r="5" cx="1114.87" cy="657.61" fill="rgba(177, 63, 144, 1)"></circle><circle r="5" cx="1105.13" cy="835.5" fill="rgba(177, 63, 144, 1)"></circle><circle r="5" cx="1104.96" cy="956.24" fill="rgba(177, 63, 144, 1)"></circle><circle r="5" cx="1238.67" cy="-103.74" fill="rgba(177, 63, 144, 1)"></circle><circle r="5" cx="1274.28" cy="101.95" fill="rgba(177, 63, 144, 1)"></circle><circle r="5" cx="1250.81" cy="262.18" fill="rgba(177, 63, 144, 1)"></circle><circle r="5" cx="1252.63" cy="340.04" fill="rgba(177, 63, 144, 1)"></circle><circle r="5" cx="1244.15" cy="533.83" fill="rgba(177, 63, 144, 1)"></circle><circle r="5" cx="1303.51" cy="692.85" fill="rgba(177, 63, 144, 1)"></circle><circle r="5" cx="1293.82" cy="1004.95" fill="rgba(177, 63, 144, 1)"></circle><circle r="5" cx="1410.36" cy="-54.01" fill="rgba(177, 63, 144, 1)"></circle><circle r="5" cx="1389.49" cy="63.94" fill="rgba(177, 63, 144, 1)"></circle><circle r="5" cx="1388.02" cy="252.42" fill="rgba(177, 63, 144, 1)"></circle><circle r="5" cx="1394.52" cy="646.12" fill="rgba(177, 63, 144, 1)"></circle><circle r="5" cx="1413.4" cy="790.39" fill="rgba(177, 63, 144, 1)"></circle><circle r="5" cx="1398" cy="974.37" fill="rgba(177, 63, 144, 1)"></circle><circle r="5" cx="1571.79" cy="-86.41" fill="rgba(177, 63, 144, 1)"></circle><circle r="5" cx="1609.17" cy="93.53" fill="rgba(177, 63, 144, 1)"></circle><circle r="5" cx="1608.41" cy="202.38" fill="rgba(177, 63, 144, 1)"></circle><circle r="5" cx="1549.12" cy="387.42" fill="rgba(177, 63, 144, 1)"></circle><circle r="5" cx="1583.02" cy="499.86" fill="rgba(177, 63, 144, 1)"></circle><circle r="5" cx="1573.14" cy="672.44" fill="rgba(177, 63, 144, 1)"></circle><circle r="5" cx="1540.02" cy="817.54" fill="rgba(177, 63, 144, 1)"></circle><circle r="5" cx="1553.76" cy="962.34" fill="rgba(177, 63, 144, 1)"></circle><path d="M76.55 821.42L76.55 821.42" stroke="hsl(233.5, 77.2%, 51.5%)" stroke-width="1.5"></path><path d="M76.55 821.42L-37.69 802.48" stroke="hsl(233.5, 77.2%, 51.5%)" stroke-width="1.5"></path><path d="M76.55 821.42L97.85 946.12" stroke="hsl(233.5, 77.2%, 51.5%)" stroke-width="1.5"></path><path d="M76.55 821.42L243.28 845.41" stroke="hsl(233.5, 77.2%, 51.5%)" stroke-width="1.5"></path><path d="M76.55 821.42L-66.12 699.73" stroke="hsl(233.5, 77.2%, 51.5%)" stroke-width="1.5"></path><path d="M76.55 821.42L211.78 955.57" stroke="hsl(233.5, 77.2%, 51.5%)" stroke-width="1.5"></path><path d="M97.85 946.12L97.85 946.12" stroke="hsl(233.5, 77.2%, 51.5%)" stroke-width="1.5"></path><path d="M97.85 946.12L211.78 955.57" stroke="hsl(233.5, 77.2%, 51.5%)" stroke-width="1.5"></path><path d="M97.85 946.12L243.28 845.41" stroke="hsl(233.5, 77.2%, 51.5%)" stroke-width="1.5"></path><path d="M97.85 946.12L-37.69 802.48" stroke="hsl(233.5, 77.2%, 51.5%)" stroke-width="1.5"></path><path d="M97.85 946.12L-99.46 985.1" stroke="hsl(233.5, 77.2%, 51.5%)" stroke-width="1.5"></path><path d="M211.78 955.57L211.78 955.57" stroke="hsl(233.5, 77.2%, 51.5%)" stroke-width="1.5"></path><path d="M211.78 955.57L243.28 845.41" stroke="hsl(233.5, 77.2%, 51.5%)" stroke-width="1.5"></path><path d="M211.78 955.57L345.54 840.41" stroke="hsl(233.5, 77.2%, 51.5%)" stroke-width="1.5"></path><path d="M513.75 688.62L513.75 688.62" stroke="hsl(233.5, 77.2%, 51.5%)" stroke-width="1.5"></path><path d="M513.75 688.62L409.36 709.53" stroke="hsl(233.5, 77.2%, 51.5%)" stroke-width="1.5"></path><path d="M513.75 688.62L645.68 679.18" stroke="hsl(233.5, 77.2%, 51.5%)" stroke-width="1.5"></path><path d="M510.42 964.76L510.42 964.76" stroke="hsl(233.5, 77.2%, 51.5%)" stroke-width="1.5"></path><path d="M510.42 964.76L495.55 860.34" stroke="hsl(233.5, 77.2%, 51.5%)" stroke-width="1.5"></path><path d="M510.42 964.76L388.54 1008.39" stroke="hsl(233.5, 77.2%, 51.5%)" stroke-width="1.5"></path><path d="M510.42 964.76L682.12 967.64" stroke="hsl(233.5, 77.2%, 51.5%)" stroke-width="1.5"></path><path d="M510.42 964.76L666.03 860.45" stroke="hsl(233.5, 77.2%, 51.5%)" stroke-width="1.5"></path><path d="M820.51 987.32L820.51 987.32" stroke="hsl(233.5, 77.2%, 51.5%)" stroke-width="1.5"></path><path d="M820.51 987.32L840.57 849.1" stroke="hsl(233.5, 77.2%, 51.5%)" stroke-width="1.5"></path><path d="M820.51 987.32L682.12 967.64" stroke="hsl(233.5, 77.2%, 51.5%)" stroke-width="1.5"></path><path d="M820.51 987.32L1001.09 957.76" stroke="hsl(233.5, 77.2%, 51.5%)" stroke-width="1.5"></path><path d="M820.51 987.32L666.03 860.45" stroke="hsl(233.5, 77.2%, 51.5%)" stroke-width="1.5"></path><path d="M1094.31 242.13L1094.31 242.13" stroke="hsl(233.5, 77.2%, 51.5%)" stroke-width="1.5"></path><path d="M1094.31 242.13L1115.56 364.83" stroke="hsl(233.5, 77.2%, 51.5%)" stroke-width="1.5"></path><path d="M1094.31 242.13L979.4 408.74" stroke="hsl(233.5, 77.2%, 51.5%)" stroke-width="1.5"></path><path d="M1094.31 242.13L1298.43 252.49" stroke="hsl(233.5, 77.2%, 51.5%)" stroke-width="1.5"></path><path d="M1094.31 242.13L1260.51 103.81" stroke="hsl(233.5, 77.2%, 51.5%)" stroke-width="1.5"></path><path d="M1094.31 242.13L1286.42 366.62" stroke="hsl(233.5, 77.2%, 51.5%)" stroke-width="1.5"></path><path d="M1094.31 242.13L1140.9 510.11" stroke="hsl(233.5, 77.2%, 51.5%)" stroke-width="1.5"></path><path d="M1286.42 366.62L1286.42 366.62" stroke="hsl(233.5, 77.2%, 51.5%)" stroke-width="1.5"></path><path d="M1286.42 366.62L1298.43 252.49" stroke="hsl(233.5, 77.2%, 51.5%)" stroke-width="1.5"></path><path d="M1286.42 366.62L1251.82 512.52" stroke="hsl(233.5, 77.2%, 51.5%)" stroke-width="1.5"></path><path d="M1286.42 366.62L1437.66 391.38" stroke="hsl(233.5, 77.2%, 51.5%)" stroke-width="1.5"></path><path d="M1286.42 366.62L1115.56 364.83" stroke="hsl(233.5, 77.2%, 51.5%)" stroke-width="1.5"></path><path d="M1286.42 366.62L1417.91 228.9" stroke="hsl(233.5, 77.2%, 51.5%)" stroke-width="1.5"></path><path d="M1286.42 366.62L1140.9 510.11" stroke="hsl(233.5, 77.2%, 51.5%)" stroke-width="1.5"></path><path d="M1272.31 689.52L1272.31 689.52" stroke="hsl(233.5, 77.2%, 51.5%)" stroke-width="1.5"></path><path d="M1272.31 689.52L1131.44 704.2" stroke="hsl(233.5, 77.2%, 51.5%)" stroke-width="1.5"></path><path d="M1272.31 689.52L1430.58 656.81" stroke="hsl(233.5, 77.2%, 51.5%)" stroke-width="1.5"></path><path d="M1272.31 689.52L1290.64 859.17" stroke="hsl(233.5, 77.2%, 51.5%)" stroke-width="1.5"></path><path d="M1290.64 859.17L1290.64 859.17" stroke="hsl(233.5, 77.2%, 51.5%)" stroke-width="1.5"></path><path d="M1290.64 859.17L1418.93 820.01" stroke="hsl(233.5, 77.2%, 51.5%)" stroke-width="1.5"></path><path d="M1290.64 859.17L1396.22 946.81" stroke="hsl(233.5, 77.2%, 51.5%)" stroke-width="1.5"></path><path d="M1290.64 859.17L1107.45 797.1" stroke="hsl(233.5, 77.2%, 51.5%)" stroke-width="1.5"></path><path d="M1290.64 859.17L1157.68 1011.41" stroke="hsl(233.5, 77.2%, 51.5%)" stroke-width="1.5"></path><path d="M1290.64 859.17L1131.44 704.2" stroke="hsl(233.5, 77.2%, 51.5%)" stroke-width="1.5"></path><path d="M1430.58 656.81L1430.58 656.81" stroke="hsl(233.5, 77.2%, 51.5%)" stroke-width="1.5"></path><path d="M1430.58 656.81L1404.78 545.58" stroke="hsl(233.5, 77.2%, 51.5%)" stroke-width="1.5"></path><path d="M1430.58 656.81L1567.81 666.09" stroke="hsl(233.5, 77.2%, 51.5%)" stroke-width="1.5"></path><path d="M1610.86 -84.08L1610.86 -84.08" stroke="hsl(233.5, 77.2%, 51.5%)" stroke-width="1.5"></path><path d="M1610.86 -84.08L1592.51 40.93" stroke="hsl(233.5, 77.2%, 51.5%)" stroke-width="1.5"></path><path d="M1610.86 -84.08L1409.66 -87.57" stroke="hsl(233.5, 77.2%, 51.5%)" stroke-width="1.5"></path><path d="M1610.86 -84.08L1404.59 59.51" stroke="hsl(233.5, 77.2%, 51.5%)" stroke-width="1.5"></path><path d="M1610.86 -84.08L1595.57 206.32" stroke="hsl(233.5, 77.2%, 51.5%)" stroke-width="1.5"></path><path d="M1610.86 -84.08L1283.32 -47.6" stroke="hsl(233.5, 77.2%, 51.5%)" stroke-width="1.5"></path><path d="M1596.33 364.89L1596.33 364.89" stroke="hsl(233.5, 77.2%, 51.5%)" stroke-width="1.5"></path><path d="M1596.33 364.89L1544.44 504.14" stroke="hsl(233.5, 77.2%, 51.5%)" stroke-width="1.5"></path><path d="M1596.33 364.89L1595.57 206.32" stroke="hsl(233.5, 77.2%, 51.5%)" stroke-width="1.5"></path><path d="M1596.33 364.89L1437.66 391.38" stroke="hsl(233.5, 77.2%, 51.5%)" stroke-width="1.5"></path><path d="M1596.33 364.89L1417.91 228.9" stroke="hsl(233.5, 77.2%, 51.5%)" stroke-width="1.5"></path><path d="M1596.33 364.89L1404.78 545.58" stroke="hsl(233.5, 77.2%, 51.5%)" stroke-width="1.5"></path><path d="M1567.81 666.09L1567.81 666.09" stroke="hsl(233.5, 77.2%, 51.5%)" stroke-width="1.5"></path><path d="M1567.81 666.09L1544.44 504.14" stroke="hsl(233.5, 77.2%, 51.5%)" stroke-width="1.5"></path><path d="M1567.81 666.09L1552.3 856.2" stroke="hsl(233.5, 77.2%, 51.5%)" stroke-width="1.5"></path><path d="M1552.3 856.2L1552.3 856.2" stroke="hsl(233.5, 77.2%, 51.5%)" stroke-width="1.5"></path><path d="M1552.3 856.2L1418.93 820.01" stroke="hsl(233.5, 77.2%, 51.5%)" stroke-width="1.5"></path><path d="M1552.3 856.2L1585.25 997.03" stroke="hsl(233.5, 77.2%, 51.5%)" stroke-width="1.5"></path><path d="M-66.12 699.73L-66.12 699.73" stroke="hsl(233.5, 77.2%, 51.5%)" stroke-width="1.5"></path><path d="M-66.12 699.73L-37.69 802.48" stroke="hsl(233.5, 77.2%, 51.5%)" stroke-width="1.5"></path><path d="M-66.12 699.73L203.6 639.53" stroke="hsl(233.5, 77.2%, 51.5%)" stroke-width="1.5"></path><path d="M-66.12 699.73L-99.46 985.1" stroke="hsl(233.5, 77.2%, 51.5%)" stroke-width="1.5"></path><path d="M-66.12 699.73L97.85 946.12" stroke="hsl(233.5, 77.2%, 51.5%)" stroke-width="1.5"></path><path d="M-37.69 802.48L-37.69 802.48" stroke="hsl(233.5, 77.2%, 51.5%)" stroke-width="1.5"></path><path d="M-37.69 802.48L-99.46 985.1" stroke="hsl(233.5, 77.2%, 51.5%)" stroke-width="1.5"></path><path d="M-99.46 985.1L-99.46 985.1" stroke="hsl(233.5, 77.2%, 51.5%)" stroke-width="1.5"></path><path d="M-99.46 985.1L76.55 821.42" stroke="hsl(233.5, 77.2%, 51.5%)" stroke-width="1.5"></path><path d="M203.6 639.53L203.6 639.53" stroke="hsl(233.5, 77.2%, 51.5%)" stroke-width="1.5"></path><path d="M203.6 639.53L243.28 845.41" stroke="hsl(233.5, 77.2%, 51.5%)" stroke-width="1.5"></path><path d="M203.6 639.53L409.36 709.53" stroke="hsl(233.5, 77.2%, 51.5%)" stroke-width="1.5"></path><path d="M203.6 639.53L76.55 821.42" stroke="hsl(233.5, 77.2%, 51.5%)" stroke-width="1.5"></path><path d="M243.28 845.41L243.28 845.41" stroke="hsl(233.5, 77.2%, 51.5%)" stroke-width="1.5"></path><path d="M243.28 845.41L345.54 840.41" stroke="hsl(233.5, 77.2%, 51.5%)" stroke-width="1.5"></path><path d="M409.36 709.53L409.36 709.53" stroke="hsl(233.5, 77.2%, 51.5%)" stroke-width="1.5"></path><path d="M409.36 709.53L345.54 840.41" stroke="hsl(233.5, 77.2%, 51.5%)" stroke-width="1.5"></path><path d="M409.36 709.53L495.55 860.34" stroke="hsl(233.5, 77.2%, 51.5%)" stroke-width="1.5"></path><path d="M345.54 840.41L345.54 840.41" stroke="hsl(233.5, 77.2%, 51.5%)" stroke-width="1.5"></path><path d="M345.54 840.41L495.55 860.34" stroke="hsl(233.5, 77.2%, 51.5%)" stroke-width="1.5"></path><path d="M388.54 1008.39L388.54 1008.39" stroke="hsl(233.5, 77.2%, 51.5%)" stroke-width="1.5"></path><path d="M388.54 1008.39L345.54 840.41" stroke="hsl(233.5, 77.2%, 51.5%)" stroke-width="1.5"></path><path d="M495.55 860.34L495.55 860.34" stroke="hsl(233.5, 77.2%, 51.5%)" stroke-width="1.5"></path><path d="M700.88 533.37L700.88 533.37" stroke="hsl(233.5, 77.2%, 51.5%)" stroke-width="1.5"></path><path d="M700.88 533.37L645.68 679.18" stroke="hsl(233.5, 77.2%, 51.5%)" stroke-width="1.5"></path><path d="M700.88 533.37L857.01 504.38" stroke="hsl(233.5, 77.2%, 51.5%)" stroke-width="1.5"></path><path d="M700.88 533.37L861.09 697.79" stroke="hsl(233.5, 77.2%, 51.5%)" stroke-width="1.5"></path><path d="M700.88 533.37L513.75 688.62" stroke="hsl(233.5, 77.2%, 51.5%)" stroke-width="1.5"></path><path d="M700.88 533.37L995.46 511.07" stroke="hsl(233.5, 77.2%, 51.5%)" stroke-width="1.5"></path><path d="M700.88 533.37L979.4 408.74" stroke="hsl(233.5, 77.2%, 51.5%)" stroke-width="1.5"></path><path d="M645.68 679.18L645.68 679.18" stroke="hsl(233.5, 77.2%, 51.5%)" stroke-width="1.5"></path><path d="M645.68 679.18L666.03 860.45" stroke="hsl(233.5, 77.2%, 51.5%)" stroke-width="1.5"></path><path d="M666.03 860.45L666.03 860.45" stroke="hsl(233.5, 77.2%, 51.5%)" stroke-width="1.5"></path><path d="M666.03 860.45L682.12 967.64" stroke="hsl(233.5, 77.2%, 51.5%)" stroke-width="1.5"></path><path d="M666.03 860.45L495.55 860.34" stroke="hsl(233.5, 77.2%, 51.5%)" stroke-width="1.5"></path><path d="M666.03 860.45L840.57 849.1" stroke="hsl(233.5, 77.2%, 51.5%)" stroke-width="1.5"></path><path d="M682.12 967.64L682.12 967.64" stroke="hsl(233.5, 77.2%, 51.5%)" stroke-width="1.5"></path><path d="M857.01 504.38L857.01 504.38" stroke="hsl(233.5, 77.2%, 51.5%)" stroke-width="1.5"></path><path d="M857.01 504.38L995.46 511.07" stroke="hsl(233.5, 77.2%, 51.5%)" stroke-width="1.5"></path><path d="M857.01 504.38L979.4 408.74" stroke="hsl(233.5, 77.2%, 51.5%)" stroke-width="1.5"></path><path d="M857.01 504.38L988.57 638.39" stroke="hsl(233.5, 77.2%, 51.5%)" stroke-width="1.5"></path><path d="M861.09 697.79L861.09 697.79" stroke="hsl(233.5, 77.2%, 51.5%)" stroke-width="1.5"></path><path d="M861.09 697.79L988.57 638.39" stroke="hsl(233.5, 77.2%, 51.5%)" stroke-width="1.5"></path><path d="M861.09 697.79L840.57 849.1" stroke="hsl(233.5, 77.2%, 51.5%)" stroke-width="1.5"></path><path d="M861.09 697.79L986.29 790.23" stroke="hsl(233.5, 77.2%, 51.5%)" stroke-width="1.5"></path><path d="M840.57 849.1L840.57 849.1" stroke="hsl(233.5, 77.2%, 51.5%)" stroke-width="1.5"></path><path d="M840.57 849.1L986.29 790.23" stroke="hsl(233.5, 77.2%, 51.5%)" stroke-width="1.5"></path><path d="M979.4 408.74L979.4 408.74" stroke="hsl(233.5, 77.2%, 51.5%)" stroke-width="1.5"></path><path d="M979.4 408.74L995.46 511.07" stroke="hsl(233.5, 77.2%, 51.5%)" stroke-width="1.5"></path><path d="M979.4 408.74L1115.56 364.83" stroke="hsl(233.5, 77.2%, 51.5%)" stroke-width="1.5"></path><path d="M979.4 408.74L1140.9 510.11" stroke="hsl(233.5, 77.2%, 51.5%)" stroke-width="1.5"></path><path d="M979.4 408.74L988.57 638.39" stroke="hsl(233.5, 77.2%, 51.5%)" stroke-width="1.5"></path><path d="M995.46 511.07L995.46 511.07" stroke="hsl(233.5, 77.2%, 51.5%)" stroke-width="1.5"></path><path d="M995.46 511.07L988.57 638.39" stroke="hsl(233.5, 77.2%, 51.5%)" stroke-width="1.5"></path><path d="M988.57 638.39L988.57 638.39" stroke="hsl(233.5, 77.2%, 51.5%)" stroke-width="1.5"></path><path d="M988.57 638.39L986.29 790.23" stroke="hsl(233.5, 77.2%, 51.5%)" stroke-width="1.5"></path><path d="M986.29 790.23L986.29 790.23" stroke="hsl(233.5, 77.2%, 51.5%)" stroke-width="1.5"></path><path d="M986.29 790.23L1107.45 797.1" stroke="hsl(233.5, 77.2%, 51.5%)" stroke-width="1.5"></path><path d="M1001.09 957.76L1001.09 957.76" stroke="hsl(233.5, 77.2%, 51.5%)" stroke-width="1.5"></path><path d="M1001.09 957.76L1157.68 1011.41" stroke="hsl(233.5, 77.2%, 51.5%)" stroke-width="1.5"></path><path d="M1001.09 957.76L986.29 790.23" stroke="hsl(233.5, 77.2%, 51.5%)" stroke-width="1.5"></path><path d="M1001.09 957.76L1107.45 797.1" stroke="hsl(233.5, 77.2%, 51.5%)" stroke-width="1.5"></path><path d="M1115.56 364.83L1115.56 364.83" stroke="hsl(233.5, 77.2%, 51.5%)" stroke-width="1.5"></path><path d="M1115.56 364.83L1140.9 510.11" stroke="hsl(233.5, 77.2%, 51.5%)" stroke-width="1.5"></path><path d="M1140.9 510.11L1140.9 510.11" stroke="hsl(233.5, 77.2%, 51.5%)" stroke-width="1.5"></path><path d="M1140.9 510.11L1251.82 512.52" stroke="hsl(233.5, 77.2%, 51.5%)" stroke-width="1.5"></path><path d="M1140.9 510.11L995.46 511.07" stroke="hsl(233.5, 77.2%, 51.5%)" stroke-width="1.5"></path><path d="M1131.44 704.2L1131.44 704.2" stroke="hsl(233.5, 77.2%, 51.5%)" stroke-width="1.5"></path><path d="M1131.44 704.2L1107.45 797.1" stroke="hsl(233.5, 77.2%, 51.5%)" stroke-width="1.5"></path><path d="M1131.44 704.2L988.57 638.39" stroke="hsl(233.5, 77.2%, 51.5%)" stroke-width="1.5"></path><path d="M1107.45 797.1L1107.45 797.1" stroke="hsl(233.5, 77.2%, 51.5%)" stroke-width="1.5"></path><path d="M1157.68 1011.41L1157.68 1011.41" stroke="hsl(233.5, 77.2%, 51.5%)" stroke-width="1.5"></path><path d="M1157.68 1011.41L1107.45 797.1" stroke="hsl(233.5, 77.2%, 51.5%)" stroke-width="1.5"></path><path d="M1283.32 -47.6L1283.32 -47.6" stroke="hsl(233.5, 77.2%, 51.5%)" stroke-width="1.5"></path><path d="M1283.32 -47.6L1409.66 -87.57" stroke="hsl(233.5, 77.2%, 51.5%)" stroke-width="1.5"></path><path d="M1283.32 -47.6L1260.51 103.81" stroke="hsl(233.5, 77.2%, 51.5%)" stroke-width="1.5"></path><path d="M1260.51 103.81L1260.51 103.81" stroke="hsl(233.5, 77.2%, 51.5%)" stroke-width="1.5"></path><path d="M1260.51 103.81L1404.59 59.51" stroke="hsl(233.5, 77.2%, 51.5%)" stroke-width="1.5"></path><path d="M1298.43 252.49L1298.43 252.49" stroke="hsl(233.5, 77.2%, 51.5%)" stroke-width="1.5"></path><path d="M1298.43 252.49L1417.91 228.9" stroke="hsl(233.5, 77.2%, 51.5%)" stroke-width="1.5"></path><path d="M1298.43 252.49L1260.51 103.81" stroke="hsl(233.5, 77.2%, 51.5%)" stroke-width="1.5"></path><path d="M1251.82 512.52L1251.82 512.52" stroke="hsl(233.5, 77.2%, 51.5%)" stroke-width="1.5"></path><path d="M1409.66 -87.57L1409.66 -87.57" stroke="hsl(233.5, 77.2%, 51.5%)" stroke-width="1.5"></path><path d="M1404.59 59.51L1404.59 59.51" stroke="hsl(233.5, 77.2%, 51.5%)" stroke-width="1.5"></path><path d="M1404.59 59.51L1409.66 -87.57" stroke="hsl(233.5, 77.2%, 51.5%)" stroke-width="1.5"></path><path d="M1404.59 59.51L1283.32 -47.6" stroke="hsl(233.5, 77.2%, 51.5%)" stroke-width="1.5"></path><path d="M1404.59 59.51L1417.91 228.9" stroke="hsl(233.5, 77.2%, 51.5%)" stroke-width="1.5"></path><path d="M1404.59 59.51L1592.51 40.93" stroke="hsl(233.5, 77.2%, 51.5%)" stroke-width="1.5"></path><path d="M1404.59 59.51L1298.43 252.49" stroke="hsl(233.5, 77.2%, 51.5%)" stroke-width="1.5"></path><path d="M1417.91 228.9L1417.91 228.9" stroke="hsl(233.5, 77.2%, 51.5%)" stroke-width="1.5"></path><path d="M1417.91 228.9L1437.66 391.38" stroke="hsl(233.5, 77.2%, 51.5%)" stroke-width="1.5"></path><path d="M1437.66 391.38L1437.66 391.38" stroke="hsl(233.5, 77.2%, 51.5%)" stroke-width="1.5"></path><path d="M1437.66 391.38L1544.44 504.14" stroke="hsl(233.5, 77.2%, 51.5%)" stroke-width="1.5"></path><path d="M1437.66 391.38L1404.78 545.58" stroke="hsl(233.5, 77.2%, 51.5%)" stroke-width="1.5"></path><path d="M1437.66 391.38L1298.43 252.49" stroke="hsl(233.5, 77.2%, 51.5%)" stroke-width="1.5"></path><path d="M1404.78 545.58L1404.78 545.58" stroke="hsl(233.5, 77.2%, 51.5%)" stroke-width="1.5"></path><path d="M1418.93 820.01L1418.93 820.01" stroke="hsl(233.5, 77.2%, 51.5%)" stroke-width="1.5"></path><path d="M1418.93 820.01L1396.22 946.81" stroke="hsl(233.5, 77.2%, 51.5%)" stroke-width="1.5"></path><path d="M1396.22 946.81L1396.22 946.81" stroke="hsl(233.5, 77.2%, 51.5%)" stroke-width="1.5"></path><path d="M1592.51 40.93L1592.51 40.93" stroke="hsl(233.5, 77.2%, 51.5%)" stroke-width="1.5"></path><path d="M1592.51 40.93L1595.57 206.32" stroke="hsl(233.5, 77.2%, 51.5%)" stroke-width="1.5"></path><path d="M1592.51 40.93L1409.66 -87.57" stroke="hsl(233.5, 77.2%, 51.5%)" stroke-width="1.5"></path><path d="M1595.57 206.32L1595.57 206.32" stroke="hsl(233.5, 77.2%, 51.5%)" stroke-width="1.5"></path><path d="M1595.57 206.32L1417.91 228.9" stroke="hsl(233.5, 77.2%, 51.5%)" stroke-width="1.5"></path><path d="M1595.57 206.32L1404.59 59.51" stroke="hsl(233.5, 77.2%, 51.5%)" stroke-width="1.5"></path><path d="M1595.57 206.32L1437.66 391.38" stroke="hsl(233.5, 77.2%, 51.5%)" stroke-width="1.5"></path><path d="M1544.44 504.14L1544.44 504.14" stroke="hsl(233.5, 77.2%, 51.5%)" stroke-width="1.5"></path><path d="M1544.44 504.14L1404.78 545.58" stroke="hsl(233.5, 77.2%, 51.5%)" stroke-width="1.5"></path><path d="M1544.44 504.14L1430.58 656.81" stroke="hsl(233.5, 77.2%, 51.5%)" stroke-width="1.5"></path><path d="M1585.25 997.03L1585.25 997.03" stroke="hsl(233.5, 77.2%, 51.5%)" stroke-width="1.5"></path><path d="M1585.25 997.03L1396.22 946.81" stroke="hsl(233.5, 77.2%, 51.5%)" stroke-width="1.5"></path><path d="M1585.25 997.03L1418.93 820.01" stroke="hsl(233.5, 77.2%, 51.5%)" stroke-width="1.5"></path><circle r="25" cx="76.55" cy="821.42" fill="url(#SvgjsRadialGradient1037)"></circle><circle r="25" cx="97.85" cy="946.12" fill="url(#SvgjsRadialGradient1037)"></circle><circle r="25" cx="211.78" cy="955.57" fill="url(#SvgjsRadialGradient1037)"></circle><circle r="25" cx="513.75" cy="688.62" fill="url(#SvgjsRadialGradient1037)"></circle><circle r="25" cx="510.42" cy="964.76" fill="url(#SvgjsRadialGradient1037)"></circle><circle r="25" cx="820.51" cy="987.32" fill="url(#SvgjsRadialGradient1037)"></circle><circle r="25" cx="1094.31" cy="242.13" fill="url(#SvgjsRadialGradient1037)"></circle><circle r="25" cx="1286.42" cy="366.62" fill="url(#SvgjsRadialGradient1037)"></circle><circle r="25" cx="1272.31" cy="689.52" fill="url(#SvgjsRadialGradient1037)"></circle><circle r="25" cx="1290.64" cy="859.17" fill="url(#SvgjsRadialGradient1037)"></circle><circle r="25" cx="1430.58" cy="656.81" fill="url(#SvgjsRadialGradient1037)"></circle><circle r="25" cx="1610.86" cy="-84.08" fill="url(#SvgjsRadialGradient1037)"></circle><circle r="25" cx="1596.33" cy="364.89" fill="url(#SvgjsRadialGradient1037)"></circle><circle r="25" cx="1567.81" cy="666.09" fill="url(#SvgjsRadialGradient1037)"></circle><circle r="25" cx="1552.3" cy="856.2" fill="url(#SvgjsRadialGradient1037)"></circle><circle r="5" cx="-66.12" cy="699.73" fill="#8b94d9"></circle><circle r="5" cx="-37.69" cy="802.48" fill="#8b94d9"></circle><circle r="5" cx="-99.46" cy="985.1" fill="#8b94d9"></circle><circle r="5" cx="203.6" cy="639.53" fill="#8b94d9"></circle><circle r="5" cx="243.28" cy="845.41" fill="#8b94d9"></circle><circle r="5" cx="409.36" cy="709.53" fill="#8b94d9"></circle><circle r="5" cx="345.54" cy="840.41" fill="#8b94d9"></circle><circle r="5" cx="388.54" cy="1008.39" fill="#8b94d9"></circle><circle r="5" cx="495.55" cy="860.34" fill="#8b94d9"></circle><circle r="5" cx="700.88" cy="533.37" fill="#8b94d9"></circle><circle r="5" cx="645.68" cy="679.18" fill="#8b94d9"></circle><circle r="5" cx="666.03" cy="860.45" fill="#8b94d9"></circle><circle r="5" cx="682.12" cy="967.64" fill="#8b94d9"></circle><circle r="5" cx="857.01" cy="504.38" fill="#8b94d9"></circle><circle r="5" cx="861.09" cy="697.79" fill="#8b94d9"></circle><circle r="5" cx="840.57" cy="849.1" fill="#8b94d9"></circle><circle r="5" cx="979.4" cy="408.74" fill="#8b94d9"></circle><circle r="5" cx="995.46" cy="511.07" fill="#8b94d9"></circle><circle r="5" cx="988.57" cy="638.39" fill="#8b94d9"></circle><circle r="5" cx="986.29" cy="790.23" fill="#8b94d9"></circle><circle r="5" cx="1001.09" cy="957.76" fill="#8b94d9"></circle><circle r="5" cx="1115.56" cy="364.83" fill="#8b94d9"></circle><circle r="5" cx="1140.9" cy="510.11" fill="#8b94d9"></circle><circle r="5" cx="1131.44" cy="704.2" fill="#8b94d9"></circle><circle r="5" cx="1107.45" cy="797.1" fill="#8b94d9"></circle><circle r="5" cx="1157.68" cy="1011.41" fill="#8b94d9"></circle><circle r="5" cx="1283.32" cy="-47.6" fill="#8b94d9"></circle><circle r="5" cx="1260.51" cy="103.81" fill="#8b94d9"></circle><circle r="5" cx="1298.43" cy="252.49" fill="#8b94d9"></circle><circle r="5" cx="1251.82" cy="512.52" fill="#8b94d9"></circle><circle r="5" cx="1409.66" cy="-87.57" fill="#8b94d9"></circle><circle r="5" cx="1404.59" cy="59.51" fill="#8b94d9"></circle><circle r="5" cx="1417.91" cy="228.9" fill="#8b94d9"></circle><circle r="5" cx="1437.66" cy="391.38" fill="#8b94d9"></circle><circle r="5" cx="1404.78" cy="545.58" fill="#8b94d9"></circle><circle r="5" cx="1418.93" cy="820.01" fill="#8b94d9"></circle><circle r="5" cx="1396.22" cy="946.81" fill="#8b94d9"></circle><circle r="5" cx="1592.51" cy="40.93" fill="#8b94d9"></circle><circle r="5" cx="1595.57" cy="206.32" fill="#8b94d9"></circle><circle r="5" cx="1544.44" cy="504.14" fill="#8b94d9"></circle><circle r="5" cx="1585.25" cy="997.03" fill="#8b94d9"></circle></g><defs><mask id="SvgjsMask1035"><rect width="1440" height="760" fill="#ffffff"></rect></mask><linearGradient x1="11.81%" y1="-22.37%" x2="88.19%" y2="122.37%" gradientUnits="userSpaceOnUse" id="SvgjsLinearGradient1036"><stop stop-color="#0e2a47" offset="0"></stop><stop stop-color="rgba(70, 186, 115, 0.15)" offset="1"></stop></linearGradient><radialGradient id="SvgjsRadialGradient1037"><stop stop-color="#ffffff" offset="0.1"></stop><stop stop-color="rgba(23, 40, 179, 1)" offset="0.2"></stop><stop stop-color="rgba(23, 40, 179, 0)" offset="1"></stop></radialGradient></defs></svg>